<svg width="900" height="900" viewBox="0 0 900 900" fill="none" xmlns="http://www.w3.org/2000/svg">
  <rect width="900" height="900" fill="#F9F4EB"/>
  <path d="M0 598C118 557 215 536 291 534C415 531 512 580 621 636C710 682 803 713 900 729V900H0V598Z" fill="#F0D7A5"/>
  <circle cx="711" cy="156" r="118" fill="#F8D7A4"/>
  <ellipse cx="463" cy="480" rx="229" ry="292" fill="#E4BEA2"/>
  <path d="M247 778C288 686 365 626 465 604C571 580 663 606 734 668C768 698 798 744 823 804V900H164C178 857 205 818 247 778Z" fill="#45312A"/>
  <path d="M282 460C282 312 364 201 462 201C560 201 636 308 636 458C636 615 551 724 457 724C359 724 282 616 282 460Z" fill="#E8C3A6"/>
  <path d="M333 378C351 312 397 247 462 247C538 247 599 307 625 392C601 374 565 364 516 364C440 364 383 371 333 378Z" fill="#66473B"/>
  <path d="M364 454C385 434 411 424 445 424C479 424 506 435 526 458" stroke="#633E34" stroke-width="15" stroke-linecap="round"/>
  <path d="M404 580C435 605 475 607 523 589" stroke="#B16953" stroke-width="16" stroke-linecap="round"/>
  <circle cx="405" cy="474" r="15" fill="#241A18"/>
  <circle cx="516" cy="471" r="15" fill="#241A18"/>
  <path d="M313 309C339 226 411 151 520 157C615 162 690 216 743 324C688 282 624 261 552 261C468 261 391 277 313 309Z" fill="#2C211F"/>
  <path d="M263 306C307 220 369 172 447 160C551 145 644 186 724 279C639 244 564 230 496 237C397 246 320 269 263 306Z" fill="#201819"/>
</svg>
