<svg width="900" height="900" viewBox="0 0 900 900" fill="none" xmlns="http://www.w3.org/2000/svg">
  <rect width="900" height="900" fill="#EEF3F0"/>
  <path d="M0 705C84 672 167 648 248 632C335 615 415 606 489 606C604 606 741 639 900 705V900H0V705Z" fill="#D5DFDA"/>
  <circle cx="198" cy="170" r="106" fill="#DDE7E1"/>
  <ellipse cx="470" cy="470" rx="238" ry="298" fill="#CFA88F"/>
  <path d="M251 785C288 690 360 626 462 598C571 568 677 591 757 654C803 690 835 741 852 806V900H152C170 856 200 818 251 785Z" fill="#2A2C31"/>
  <path d="M284 453C284 301 367 188 472 188C572 188 646 301 646 453C646 614 565 728 467 728C364 728 284 614 284 453Z" fill="#D3AF95"/>
  <path d="M330 354C359 267 428 206 515 206C596 206 655 252 685 340C643 319 595 310 542 313C457 317 386 330 330 354Z" fill="#3A3538"/>
  <path d="M372 452C395 432 424 421 459 421C498 421 528 434 551 458" stroke="#483631" stroke-width="15" stroke-linecap="round"/>
  <path d="M401 579C438 605 482 607 532 588" stroke="#9E6559" stroke-width="15" stroke-linecap="round"/>
  <circle cx="414" cy="474" r="14" fill="#17181C"/>
  <circle cx="538" cy="472" r="14" fill="#17181C"/>
  <path d="M320 307C343 217 420 143 528 153C626 163 711 228 763 334C718 297 667 274 610 265C505 248 404 264 320 307Z" fill="#191B20"/>
  <path d="M286 335C347 245 425 203 520 208C599 212 663 238 713 286C658 284 610 287 566 297C452 323 359 347 286 335Z" fill="#111317"/>
</svg>
