<svg width="900" height="900" viewBox="0 0 900 900" fill="none" xmlns="http://www.w3.org/2000/svg">
  <rect width="900" height="900" fill="#F8F2EA"/>
  <circle cx="680" cy="182" r="154" fill="#EED2A3" fill-opacity="0.42"/>
  <ellipse cx="452" cy="516" rx="244" ry="294" fill="#E8C4AA"/>
  <path d="M263 748C284 658 340 602 431 579C501 561 575 571 636 611C672 635 699 665 718 705V900H183C194 852 221 800 263 748Z" fill="#2D3F39"/>
  <path d="M256 458C256 299 353 183 473 183C591 183 684 295 684 455C684 611 582 726 474 726C357 726 256 612 256 458Z" fill="#E7C0A5"/>
  <path d="M330 372C351 311 402 265 472 265C550 265 612 320 632 394C594 365 548 351 495 351C427 351 374 366 330 372Z" fill="#342E2C"/>
  <path d="M414 455C432 437 456 428 486 428C520 428 546 438 566 458" stroke="#5E4338" stroke-width="16" stroke-linecap="round"/>
  <path d="M417 570C449 595 491 597 542 576" stroke="#9B5A50" stroke-width="16" stroke-linecap="round"/>
  <circle cx="425" cy="472" r="16" fill="#2A201D"/>
  <circle cx="548" cy="474" r="16" fill="#2A201D"/>
  <path d="M365 330C383 261 424 227 494 229C574 231 630 270 654 354C627 315 590 286 541 267C470 240 408 261 365 330Z" fill="#221B1A"/>
  <path d="M299 335C325 224 406 152 520 156C617 159 689 210 735 308C699 281 660 264 617 257C505 239 404 266 299 335Z" fill="#221B1A"/>
</svg>
