<svg width="900" height="900" viewBox="0 0 900 900" fill="none" xmlns="http://www.w3.org/2000/svg">
  <rect width="900" height="900" fill="#F4F7F3"/>
  <rect x="0" y="580" width="900" height="320" fill="#DDE8DF"/>
  <circle cx="168" cy="180" r="126" fill="#D6E6D6"/>
  <ellipse cx="445" cy="478" rx="228" ry="286" fill="#D8B59D"/>
  <path d="M241 760C278 683 343 632 432 610C532 585 620 604 687 662C726 696 756 743 777 804V900H161C170 850 196 803 241 760Z" fill="#5C493F"/>
  <path d="M259 452C259 300 344 186 446 186C548 186 630 298 630 451C630 609 546 726 442 726C343 726 259 609 259 452Z" fill="#DCB79B"/>
  <path d="M339 427C360 407 389 398 425 398C467 398 498 410 519 434" stroke="#65453C" stroke-width="14" stroke-linecap="round"/>
  <path d="M367 581C403 607 449 608 502 584" stroke="#A2675C" stroke-width="14" stroke-linecap="round"/>
  <circle cx="382" cy="450" r="14" fill="#251A17"/>
  <circle cx="500" cy="449" r="14" fill="#251A17"/>
  <path d="M289 353C314 255 390 201 477 201C562 201 627 250 663 346C628 326 586 315 538 313C452 309 373 321 289 353Z" fill="#40302D"/>
  <path d="M274 300C318 201 397 150 505 159C591 166 656 211 697 289C665 270 626 259 583 257C464 251 364 264 274 300Z" fill="#2D2524"/>
  <path d="M328 671C368 697 411 712 456 713C499 714 538 706 573 691C556 730 519 753 464 758C402 763 354 736 328 671Z" fill="#E8C3AF"/>
</svg>
